<svg xmlns="http://www.w3.org/2000/svg" viewBox="0 0 1073.69 119.1">
  <defs>
    <style>
      .cls-1{fill:#fff}
    </style>
  </defs>
  <g id="Layer_2" data-name="Layer 2">
    <g id="Layer_1-2" data-name="Layer 1">
      <path class="cls-1" d="M54.06.83c13.47 0 23.62 3.49 30.44 10.31a27 27 0 0 1 8 19.8v.33c0 13-7 20.79-15.3 25.12C90.65 61.55 99 69.53 99 85v.33c0 21.29-17.3 31.94-43.58 31.94H0V.83zM67 35.6v-.34c0-7.81-6-12-16.8-12H25v24.65h23.57C59.88 47.91 67 44.25 67 35.6zm6.49 46.57v-.33c0-7.82-5.65-12.64-19-12.64H25v25.61h30.39c11.31 0 18.13-3.99 18.13-12.64zM183.63 0l49.91 117.27h-26.79l-10.64-26.12h-49.24l-10.64 26.12h-26.12L160 0zm-12.14 30.77L156 68.53h31zM275.12.83l54.56 71.69V.83H355v116.44h-21.83l-56.39-74v74H251.5V.83zM406.52.83l54.56 71.69V.83h25.28v116.44h-21.79l-56.38-74v74H382.9V.83zM602.13.83v22.79h-62.37v23.62h54.89V70h-54.89v24.48H603v22.79h-88.69V.83zM750.5 108.62c0-6.16 4.16-10.48 10-10.48s9.82 4.32 9.82 10.48c0 6-3.83 10.48-10 10.48-5.82 0-9.82-4.49-9.82-10.48zM786.91 53.87l22.67 54.92 22.77-54.92h7.75l-27.42 64.21h-6.37l-27.42-64.21zM860.5 53.87v63.76h-7.2V53.87zM901.3 53.87c20 0 33.88 13.75 33.88 31.7v.18c0 17.94-13.84 31.88-33.88 31.88h-22.13V53.87zm26.41 32.06v-.18c0-14.12-10.29-25.23-26.41-25.23h-14.94V111h14.94c16.12 0 26.41-10.86 26.41-25.07zM996.48 53.87v6.56h-38.89V82.2h34.79v6.56h-34.79v22.31h39.34v6.56h-46.54V53.87zM1008.59 85.93v-.18c0-17.58 13.21-33 32.61-33s32.42 15.21 32.42 32.79c.09.09.09.09 0 .18 0 17.58-13.21 33-32.6 33s-32.43-15.21-32.43-32.79zm57.56 0v-.18c0-14.48-10.56-26.32-25.13-26.32s-25 11.66-25 26.14v.18c0 14.48 10.56 26.32 25.14 26.32s24.99-11.66 24.99-26.14zM671.16.83h-45.41v116.44h45.41c36.6 0 61.88-25.45 61.88-58.22v-.33C733 26 707.76.83 671.16.83zm29.32 61.42l-20.89 11.29-20.88 11.29a4 4 0 0 1-5.88-3.73l.84-24 .85-24a4 4 0 0 1 6.12-3.31l20.05 12.74 20 12.73a4.1 4.1 0 0 1-.21 6.99z"/>
    </g>
  </g>
</svg>